<?xml version="1.0" encoding="UTF-8"?>
<svg version="1.1" xmlns="http://www.w3.org/2000/svg" width="64" height="64">
<path d="M0 0 C11.22 0 22.44 0 34 0 C34 3.96 34 7.92 34 12 C35.32 12.66 36.64 13.32 38 14 C38 20.6 38 27.2 38 34 C36.02 34 34.04 34 32 34 C32 32.68 32 31.36 32 30 C22.1 30 12.2 30 2 30 C2 31.32 2 32.64 2 34 C0.02 34 -1.96 34 -4 34 C-4 27.4 -4 20.8 -4 14 C-2.68 13.34 -1.36 12.68 0 12 C0 8.04 0 4.08 0 0 Z M2 3 C1.92820036 4.51928038 1.91607993 6.04167482 1.9375 7.5625 C1.94652344 8.38878906 1.95554687 9.21507812 1.96484375 10.06640625 C1.97644531 10.70449219 1.98804688 11.34257813 2 12 C2.66 12 3.32 12 4 12 C4 9.69 4 7.38 4 5 C7.96 5 11.92 5 16 5 C16 7.31 16 9.62 16 12 C16.66 12 17.32 12 18 12 C18 9.69 18 7.38 18 5 C21.96 5 25.92 5 30 5 C30 7.31 30 9.62 30 12 C30.66 12 31.32 12 32 12 C32.02689216 10.52093108 32.04634621 9.04172517 32.0625 7.5625 C32.07410156 6.73878906 32.08570312 5.91507813 32.09765625 5.06640625 C32.23267348 3.00836062 32.23267348 3.00836062 31 2 C28.9394469 1.90006468 26.8754741 1.86919094 24.8125 1.8671875 C23.55695312 1.86589844 22.30140625 1.86460938 21.0078125 1.86328125 C20.02216309 1.86642334 20.02216309 1.86642334 19.01660156 1.86962891 C17.00838665 1.87497766 15.00039541 1.86968309 12.9921875 1.86328125 C11.73664062 1.86457031 10.48109375 1.86585937 9.1875 1.8671875 C8.02605469 1.86831543 6.86460938 1.86944336 5.66796875 1.87060547 C3.07936716 1.69662526 3.07936716 1.69662526 2 3 Z M7 7 C6.67 8.65 6.34 10.3 6 12 C8.64 12 11.28 12 14 12 C13.67 10.35 13.34 8.7 13 7 C11.02 7 9.04 7 7 7 Z M21 7 C20.67 8.65 20.34 10.3 20 12 C22.64 12 25.28 12 28 12 C27.67 10.35 27.34 8.7 27 7 C25.02 7 23.04 7 21 7 Z M-0.95141602 15.20800781 C-2.42086696 17.37320677 -2.42086696 17.37320677 -2 22 C10.54 22 23.08 22 36 22 C35.505 18.535 35.505 18.535 35 15 C30.50107993 12.75053997 24.34797563 13.77278073 19.34204102 13.75976562 C17.07466051 13.7500521 14.80818361 13.71902607 12.54101562 13.6875 C11.10156789 13.68097058 9.66211366 13.67571986 8.22265625 13.671875 C6.91047119 13.6625293 5.59828613 13.65318359 4.24633789 13.64355469 C1.0825822 13.75525139 1.0825822 13.75525139 -0.95141602 15.20800781 Z M-2 24 C-2 26.64 -2 29.28 -2 32 C-1.34 32 -0.68 32 0 32 C0 30.68 0 29.36 0 28 C11.22 28 22.44 28 34 28 C34 29.32 34 30.64 34 32 C34.66 32 35.32 32 36 32 C36 29.36 36 26.72 36 24 C23.46 24 10.92 24 -2 24 Z " fill="#000000" transform="translate(6,28)"/>
<path d="M0 0 C1.19882812 0.54140625 2.39765625 1.0828125 3.6328125 1.640625 C4.88292481 2.21850711 6.13292344 2.79663519 7.3828125 3.375 C8.65578284 3.95415292 9.92921651 4.53228857 11.203125 5.109375 C14.30925199 6.52125091 17.40915238 7.94681097 20.5078125 9.375 C20.5078125 13.995 20.5078125 18.615 20.5078125 23.375 C19.8478125 23.375 19.1878125 23.375 18.5078125 23.375 C18.5078125 19.745 18.5078125 16.115 18.5078125 12.375 C16.80625 11.88 16.80625 11.88 15.0703125 11.375 C11.68466354 10.2752032 8.52265186 8.93125836 5.3359375 7.359375 C4.59400146 6.99457031 3.85206543 6.62976562 3.08764648 6.25390625 C1.59325204 5.50984682 0.10549327 4.75228589 -1.37475586 3.98046875 C-2.4286853 3.45646484 -2.4286853 3.45646484 -3.50390625 2.921875 C-4.43916138 2.43992676 -4.43916138 2.43992676 -5.39331055 1.94824219 C-10.16069838 0.64618023 -14.53237904 2.63862317 -18.8203125 4.66015625 C-20.26664063 5.33208008 -20.26664063 5.33208008 -21.7421875 6.01757812 C-22.7321875 6.48615234 -23.7221875 6.95472656 -24.7421875 7.4375 C-26.72501933 8.36917675 -28.70932296 9.29772967 -30.6953125 10.22265625 C-32.00483887 10.8415271 -32.00483887 10.8415271 -33.34082031 11.47290039 C-35.4921875 12.375 -35.4921875 12.375 -37.4921875 12.375 C-37.4921875 16.005 -37.4921875 19.635 -37.4921875 23.375 C-38.1521875 23.375 -38.8121875 23.375 -39.4921875 23.375 C-39.4921875 18.755 -39.4921875 14.135 -39.4921875 9.375 C-35.76126165 7.65539632 -32.02812645 5.94318729 -28.28613281 4.24804688 C-27.01572946 3.67006184 -25.74713557 3.08808156 -24.48046875 2.50195312 C-22.65331913 1.65732736 -20.81889598 0.82849334 -18.984375 0 C-17.88464355 -0.50273438 -16.78491211 -1.00546875 -15.65185547 -1.5234375 C-9.60762632 -3.63065137 -5.71302162 -2.61166703 0 0 Z " fill="#000000" transform="translate(41.4921875,4.625)"/>
<path d="M0 0 C-0.165 0.53625 -0.33 1.0725 -0.5 1.625 C-1.12173562 4.09571036 -1.12173562 4.09571036 -0.875 7.0625 C-1 10 -1 10 -2 11.875 C-5.22530068 13.68923163 -8.39510861 13.52571333 -12 13 C-14 12 -14 12 -15 10 C-15.52265149 6.4161041 -15.66071832 3.24370507 -13.9375 0 C-9.61781199 -2.22951639 -4.55016945 -1.10307138 0 0 Z M-12 3 C-12.16666667 6 -12.16666667 6 -12 9 C-10.87465895 10.35618499 -10.87465895 10.35618499 -7.9375 10.0625 C-6.968125 10.041875 -5.99875 10.02125 -5 10 C-4.67 8.68 -4.34 7.36 -4 6 C-5.98 6.33 -7.96 6.66 -10 7 C-10 6.34 -10 5.68 -10 5 C-8.68 4.34 -7.36 3.68 -6 3 C-6 2.67 -6 2.34 -6 2 C-9.28930404 1.63314303 -9.28930404 1.63314303 -12 3 Z " fill="#000000" transform="translate(40,11)"/>
<path d="M0 0 C5.28 0 10.56 0 16 0 C16 5.28 16 10.56 16 16 C15.34 16 14.68 16 14 16 C14 14.02 14 12.04 14 10 C10.04 10 6.08 10 2 10 C2 11.98 2 13.96 2 16 C1.34 16 0.68 16 0 16 C0 10.72 0 5.44 0 0 Z M2 2 C2 3.98 2 5.96 2 8 C5.96 8 9.92 8 14 8 C14 6.02 14 4.04 14 2 C10.04 2 6.08 2 2 2 Z " fill="#000000" transform="translate(46,40)"/>
<path d="M0 0 C2.64 0 5.28 0 8 0 C8.33 2.64 8.66 5.28 9 8 C7.68 8 6.36 8 5 8 C5 8.99 5 9.98 5 11 C5.66 11 6.32 11 7 11 C7 11.66 7 12.32 7 13 C5.02 13 3.04 13 1 13 C1 12.34 1 11.68 1 11 C1.66 11 2.32 11 3 11 C3 10.01 3 9.02 3 8 C1.68 8 0.36 8 -1 8 C-0.67 5.36 -0.34 2.72 0 0 Z M3 2 C2.67 3.32 2.34 4.64 2 6 C3.32 5.67 4.64 5.34 6 5 C5.67 4.01 5.34 3.02 5 2 C4.34 2 3.68 2 3 2 Z " fill="#000000" transform="translate(50,25)"/>
<path d="M0 0 C1.32 0 2.64 0 4 0 C4 0.66 4 1.32 4 2 C2.68 2 1.36 2 0 2 C0 1.34 0 0.68 0 0 Z " fill="#000000" transform="translate(52,44)"/>
</svg>
